<svg width="28" height="28" viewBox="0 0 28 28" fill="none" xmlns="http://www.w3.org/2000/svg">
<path fill-rule="evenodd" clip-rule="evenodd" d="M0 14C0 6.27993 6.27993 0 14 0C21.7201 0 28 6.27993 28 14C28 21.7201 21.7201 28 14 28C6.27993 28 0 21.7201 0 14ZM2.16885 14C2.16885 20.5229 7.47715 25.8311 14 25.8311C20.5229 25.8311 25.8311 20.5229 25.8311 14C25.8311 7.47715 20.5239 2.16885 14 2.16885C7.47715 2.16885 2.16885 7.47715 2.16885 14ZM15.0844 13.5446L18.9884 16.4726C19.4677 16.8316 19.5653 17.5115 19.2052 17.9898C18.9926 18.2761 18.6673 18.4247 18.3366 18.4247C18.1099 18.4247 17.8822 18.3542 17.687 18.2078L13.3493 14.9545C13.076 14.7506 12.9155 14.4285 12.9155 14.0869V7.5803C12.9155 6.9806 13.4002 6.49585 14 6.49585C14.5997 6.49585 15.0844 6.9806 15.0844 7.5803V13.5446Z" fill="#C4C4C4"/>
</svg>
