<svg width="54" height="54" viewBox="0 0 54 54" fill="none" xmlns="http://www.w3.org/2000/svg">
<path d="M54 27C54 12.0867 41.9133 0 27 0C12.0867 0 0 12.0867 0 27C0 41.9133 12.0867 54 27 54C27.1582 54 27.3164 54 27.4746 53.9895V32.9801H21.6738V26.2195H27.4746V21.2414C27.4746 15.4723 30.9973 12.3293 36.1441 12.3293C38.6121 12.3293 40.732 12.5086 41.3438 12.593V18.6258H37.8C35.0051 18.6258 34.4566 19.9547 34.4566 21.9059V26.209H41.1539L40.2785 32.9695H34.4566V52.9559C45.7418 49.718 54 39.3293 54 27Z" fill="#FFCD21"/>
</svg>
