<svg width="21" height="28" viewBox="0 0 21 28" fill="none" xmlns="http://www.w3.org/2000/svg">
<path d="M10.5 0C4.711 0 0 4.74367 0 10.5758C0 18.8627 9.513 27.419 9.91783 27.7783C10.0847 27.9265 10.2923 28 10.5 28C10.7077 28 10.9153 27.9265 11.0822 27.7795C11.487 27.419 21 18.8627 21 10.5758C21 4.74367 16.289 0 10.5 0ZM10.5 16.3333C7.2835 16.3333 4.66667 13.7165 4.66667 10.5C4.66667 7.2835 7.2835 4.66667 10.5 4.66667C13.7165 4.66667 16.3333 7.2835 16.3333 10.5C16.3333 13.7165 13.7165 16.3333 10.5 16.3333Z" fill="#C4C4C4"/>
</svg>
