<svg width="54" height="54" viewBox="0 0 54 54" fill="none" xmlns="http://www.w3.org/2000/svg">
<path fill-rule="evenodd" clip-rule="evenodd" d="M0 27C0 12.0906 12.0906 0 27 0C41.9094 0 54 12.0906 54 27C54 41.9094 41.9094 54 27 54C12.0906 54 0 41.9094 0 27ZM41.6898 37.1555C42.073 36.1692 42.3354 35.0424 42.4104 33.392C42.4862 31.7387 42.5039 31.2105 42.5039 27C42.5039 22.7895 42.4862 22.2613 42.4108 20.608C42.3354 18.9576 42.0734 17.8308 41.6898 16.8445C41.3009 15.81 40.6903 14.8732 39.9018 14.0986C39.1273 13.3097 38.19 12.6991 37.1555 12.3098C36.1692 11.927 35.0424 11.665 33.392 11.59C31.7387 11.5142 31.2105 11.4961 27 11.4961C22.7895 11.4961 22.2613 11.5142 20.608 11.5896C18.9576 11.665 17.8308 11.927 16.8445 12.3102C15.81 12.6995 14.8727 13.3097 14.0986 14.0986C13.3097 14.8727 12.6991 15.81 12.3098 16.8445C11.9266 17.8308 11.6646 18.9576 11.5896 20.608C11.5138 22.2613 11.4961 22.7895 11.4961 27C11.4961 31.2105 11.5138 31.7387 11.59 33.3924C11.665 35.0424 11.9274 36.1696 12.3106 37.1555C12.6999 38.19 13.3101 39.1273 14.0986 39.9014C14.8732 40.6903 15.81 41.3005 16.8449 41.6898C17.8308 42.073 18.958 42.335 20.608 42.4104C22.2617 42.4858 22.7895 42.5039 27.0004 42.5039C31.2109 42.5039 31.7391 42.4858 33.3924 42.4104C35.0424 42.335 36.1696 42.073 37.1555 41.6898C39.2381 40.8844 40.8844 39.2381 41.6898 37.1555ZM39.086 17.8563C38.8376 17.1831 38.4413 16.5738 37.9263 16.0737C37.4261 15.5587 36.8172 15.1623 36.1436 14.9139C35.5973 14.7017 34.7767 14.4492 33.2651 14.3804C31.6299 14.3058 31.1396 14.2897 27 14.2897C22.8599 14.2897 22.3697 14.3054 20.7349 14.38C19.2233 14.4492 18.4022 14.7017 17.8563 14.9139C17.1827 15.1623 16.5734 15.5587 16.0737 16.0737C15.5587 16.5738 15.1623 17.1827 14.9135 17.8563C14.7013 18.4026 14.4488 19.2237 14.38 20.7353C14.3054 22.3701 14.2893 22.8603 14.2893 27.0004C14.2893 31.14 14.3054 31.6303 14.38 33.2655C14.4488 34.7771 14.7013 35.5977 14.9135 36.144C15.1623 36.8176 15.5583 37.4265 16.0733 37.9267C16.5734 38.4417 17.1823 38.838 17.8559 39.0864C18.4022 39.299 19.2233 39.5516 20.7349 39.6204C22.3697 39.6949 22.8595 39.7106 26.9996 39.7106C31.14 39.7106 31.6303 39.6949 33.2647 39.6204C34.7762 39.5516 35.5973 39.299 36.1436 39.0864C37.4958 38.5649 38.5645 37.4962 39.086 36.144C39.2982 35.5977 39.5508 34.7771 39.62 33.2655C39.6945 31.6303 39.7102 31.14 39.7102 27.0004C39.7102 22.8603 39.6945 22.3701 39.62 20.7353C39.5512 19.2237 39.2986 18.4026 39.086 17.8563ZM27 34.9612C22.6028 34.9612 19.0383 31.3971 19.0383 27C19.0383 22.6028 22.6028 19.0387 27 19.0387C31.3967 19.0387 34.9612 22.6028 34.9612 27C34.9612 31.3971 31.3967 34.9612 27 34.9612ZM35.276 20.5845C34.2485 20.5845 33.4154 19.7515 33.4154 18.724C33.4154 17.6965 34.2485 16.8634 35.276 16.8634C36.3035 16.8634 37.1365 17.6965 37.1365 18.724C37.1361 19.7515 36.3035 20.5845 35.276 20.5845ZM32.168 27C32.168 29.8542 29.8542 32.168 27 32.168C24.1458 32.168 21.832 29.8542 21.832 27C21.832 24.1458 24.1458 21.832 27 21.832C29.8542 21.832 32.168 24.1458 32.168 27Z" fill="#FFCD21"/>
</svg>
