<svg width="24" height="24" viewBox="0 0 24 24" fill="none" xmlns="http://www.w3.org/2000/svg">
<path d="M9.94986 14.0519C7.65671 11.7587 7.13892 9.46562 7.02211 8.54688C6.98947 8.29284 7.07689 8.03808 7.25864 7.85761L9.11437 6.00273C9.38735 5.72992 9.43579 5.30476 9.23118 4.97753L6.27651 0.389616C6.05014 0.0272749 5.58535 -0.103497 5.20325 0.0876482L0.459954 2.32154C0.150966 2.47369 -0.0307763 2.80198 0.00430587 3.1446C0.252841 5.50566 1.28219 11.3097 6.98607 17.014C12.69 22.7182 18.4933 23.7471 20.8556 23.9957C21.1982 24.0308 21.5265 23.849 21.6786 23.54L23.9126 18.7968C24.103 18.4155 23.9731 17.952 23.6123 17.7252L19.0243 14.7714C18.6973 14.5666 18.2721 14.6147 17.9991 14.8874L16.1442 16.7431C15.9637 16.9248 15.709 17.0122 15.4549 16.9796C14.5362 16.8628 12.243 16.345 9.94986 14.0519Z" fill="#C4C4C4"/>
</svg>
