<svg width="70" height="70" viewBox="0 0 70 70" fill="none" xmlns="http://www.w3.org/2000/svg">
<path fill-rule="evenodd" clip-rule="evenodd" d="M37.0508 2.05185V3.86497C36.3768 3.79288 35.6927 3.75549 35 3.75549C34.3073 3.75549 33.6232 3.79288 32.9492 3.86497V2.05185C32.9492 0.918579 33.8673 0 35 0C36.1327 0 37.0508 0.918579 37.0508 2.05185ZM28.0952 5.0351C29.629 4.44496 31.2563 4.04442 32.9492 3.86497V18.2851C32.9492 19.4183 33.8673 20.3369 35 20.3369C36.1322 20.3369 37.0508 19.4183 37.0508 18.2851V3.86497C38.7437 4.04495 40.3716 4.44496 41.9059 5.03563C41.8087 5.27382 41.7542 5.53444 41.7542 5.80734V15.7686C41.7542 16.9019 42.6728 17.8204 43.805 17.8204C44.9377 17.8204 45.8558 16.9019 45.8558 15.7686V7.11205C50.9395 10.5893 54.2827 16.434 54.2827 23.0467V25.168H56.0056C57.1383 25.168 58.0563 26.0866 58.0563 27.2198C58.0563 28.3526 57.1383 29.2712 56.0056 29.2712H13.9944C12.8617 29.2712 11.9431 28.3526 11.9431 27.2198C11.9431 26.0866 12.8617 25.168 13.9939 25.168H15.7168V23.0467C15.7168 16.434 19.0605 10.5882 24.1447 7.11098V15.7686C24.1447 16.9019 25.0628 17.8204 26.1955 17.8204C27.3283 17.8204 28.2463 16.9019 28.2463 15.7686V5.80734C28.2463 5.53391 28.1918 5.27382 28.0952 5.0351ZM28.0952 5.0351C26.6927 5.57503 25.3683 6.27411 24.1453 7.11098V5.80734C24.1453 4.67407 25.0633 3.75549 26.1961 3.75549C27.0554 3.75549 27.7902 4.28528 28.0952 5.0351ZM45.8558 7.11205C44.6328 6.27518 43.3083 5.5761 41.9059 5.03616C42.2103 4.28528 42.9457 3.75549 43.805 3.75549C44.9377 3.75549 45.8558 4.67407 45.8558 5.80734V7.11205ZM51.6797 40.7619C51.6797 49.9632 44.1975 57.4486 35 57.4486C25.803 57.4486 18.3203 49.9632 18.3203 40.7619V33.3749H51.6797V40.7619ZM48.3504 57.1479V56.6811C44.7364 59.7194 40.0784 61.5523 35 61.5523C29.9216 61.5523 25.2636 59.7194 21.6502 56.6811V57.1479C21.6502 57.9458 21.1823 58.6769 20.4587 59.0107C20.4587 59.0107 23.6235 70 35.0005 70C46.377 70 49.5419 59.0107 49.5419 59.0107C48.8177 58.6769 48.3504 57.9458 48.3504 57.1479ZM16.7107 60.741C17.116 61.8962 18.1756 64.481 20.2696 67.0803C21.1546 68.1794 22.1207 69.1525 23.1573 70H0L2.05292 68.4267C4.0567 66.8913 6.22444 65.5823 8.51662 64.5243L16.7107 60.741ZM61.4834 64.5243C63.7756 65.5823 65.9433 66.8913 67.9471 68.4267L70 70H46.8427C47.8799 69.1525 48.8454 68.1789 49.7304 67.0803C51.8244 64.481 52.884 61.8962 53.2893 60.741L61.4834 64.5243Z" fill="#FFCD21"/>
</svg>
