<svg width="51" height="71" viewBox="0 0 51 71" fill="none" xmlns="http://www.w3.org/2000/svg">
<path fill-rule="evenodd" clip-rule="evenodd" d="M20.3096 0H30.6521C37.1759 0 47.8403 7.04168 51 16.2108V16.2159L49.6462 16.9132C47.4111 13.2973 43.4238 10.1429 38.3151 10.1429C33.255 10.1429 30.6112 13.2871 30.6112 17.75V27.8929H20.3939L20.4373 17.75C20.4373 16.1246 19.7578 10.1429 14.6492 10.1429C13.1395 10.1429 11.7908 10.8072 10.856 11.8519C10.3834 12.3819 9.70139 12.6786 8.98618 12.6786H1.27717C0.572173 12.6786 0 12.1106 0 11.4107V1.26786C0 0.568 0.572173 0 1.27717 0H8.98618C9.70139 0 10.3834 0.296679 10.8585 0.826643C11.7908 1.87136 13.1421 2.53571 14.6492 2.53571C16.1562 2.53571 17.5049 1.87136 18.4398 0.826643C18.9124 0.296679 19.5944 0 20.3096 0ZM2.55434 5.07143H7.66303V2.53571H2.55434V5.07143ZM30.6521 30.4285C33.3597 37.0898 33.9242 40.1834 33.209 48.1785C32.251 58.8528 32.7709 61.9854 33.1135 64.049C33.2321 64.764 33.3295 65.3506 33.3367 66.0781C33.3623 68.9054 31.7428 70.9999 29.776 70.9999H21.3134C19.3466 70.9999 17.7246 68.9054 17.7527 66.0781C17.7599 65.3506 17.8573 64.764 17.976 64.049C18.3185 61.9854 18.8384 58.8527 17.8804 48.1785C17.1626 40.1834 17.7271 37.0898 20.4347 30.4285H30.6521Z" fill="#FFCD21"/>
</svg>
