<svg width="60" height="72" viewBox="0 0 60 72" fill="none" xmlns="http://www.w3.org/2000/svg">
<path fill-rule="evenodd" clip-rule="evenodd" d="M20.8751 5.95759V0H38.7479V5.95759H32.7903V8.93631C30.7051 8.63848 28.9178 8.63848 26.8327 8.93631V5.95759H20.8751ZM52.1522 17.5748L50.0671 19.6599C60.4929 29.192 62.5779 44.6815 55.1311 56.8945C46.7904 71.1926 28.3221 75.6608 14.3219 67.0223C0.321606 58.3838 -4.14641 40.5112 4.1941 26.2131C12.5346 11.915 31.003 7.44686 45.3011 16.0853L47.982 13.4045L45.599 11.0215L49.7693 6.8512L58.7056 15.7875L54.5353 19.9578L52.1522 17.5748ZM8.96009 41.405C8.96009 53.0222 18.1942 62.2563 29.8114 62.2563C41.4286 62.2563 50.6629 53.022 50.6628 41.4048H29.8114V20.5535C18.1942 20.5535 8.96009 29.7878 8.96009 41.405Z" fill="#FFCD21"/>
</svg>
