<svg width="224" height="62" viewBox="0 0 224 62" fill="none" xmlns="http://www.w3.org/2000/svg">
<path d="M58 38.7517V24.2285H62.0116V35.5828H67.7295V38.7517H58Z" fill="#FFCD21"/>
<path d="M83.9994 31.4702C83.9994 33.9139 83.3866 35.7715 82.1611 37.043C80.9357 38.3146 79.1414 38.9503 76.7785 38.9503C74.4494 38.9503 72.6619 38.3113 71.4161 37.0331C70.1771 35.755 69.5575 33.894 69.5575 31.4503C69.5575 29.0331 70.1737 27.1887 71.4059 25.9172C72.645 24.6391 74.4426 24 76.7988 24C79.1617 24 80.9526 24.6325 82.1713 25.8974C83.39 27.1623 83.9994 29.0199 83.9994 31.4702ZM73.7824 31.4702C73.7824 34.2781 74.7811 35.6821 76.7785 35.6821C77.7941 35.6821 78.5456 35.3411 79.0331 34.6589C79.5274 33.9768 79.7745 32.9139 79.7745 31.4702C79.7745 30.0199 79.524 28.9503 79.0229 28.2616C78.5287 27.5662 77.7873 27.2185 76.7988 27.2185C74.7879 27.2185 73.7824 28.6358 73.7824 31.4702Z" fill="#FFCD21"/>
<path d="M93.15 38.7517L90.1133 28.2914H90.0219C90.1641 30.0728 90.2352 31.457 90.2352 32.4437V38.7517H86.6806V24.2285H92.0226L95.1202 34.5397H95.2015L98.2381 24.2285H103.59V38.7517H99.9037V32.3841C99.9037 32.053 99.9071 31.6854 99.9139 31.2815C99.9274 30.8775 99.9748 29.8874 100.056 28.3113H99.9646L96.9686 38.7517H93.15Z" fill="#FFCD21"/>
<path d="M115.899 38.7517L115.168 36.0298H110.344L109.593 38.7517H105.185L110.029 24.1689H115.381L120.287 38.7517H115.899ZM114.335 32.8113L113.696 30.4272C113.547 29.8974 113.364 29.2119 113.147 28.3709C112.937 27.5298 112.798 26.9272 112.731 26.5629C112.67 26.9007 112.548 27.457 112.365 28.2318C112.189 29.0066 111.793 30.5331 111.177 32.8113H114.335Z" fill="#FFCD21"/>
<path d="M130.717 38.7517H121.902V24.2285H130.717V27.3775H125.913V29.6623H130.362V32.8113H125.913V35.553H130.717V38.7517Z" fill="#FFCD21"/>
<path d="M139.786 38.7517L136.75 28.2914H136.658C136.8 30.0728 136.872 31.457 136.872 32.4437V38.7517H133.317V24.2285H138.659L141.757 34.5397H141.838L144.875 24.2285H150.227V38.7517H146.54V32.3841C146.54 32.053 146.543 31.6854 146.55 31.2815C146.564 30.8775 146.611 29.8874 146.692 28.3113H146.601L143.605 38.7517H139.786Z" fill="#FFCD21"/>
<path d="M161.764 24.2285H166.253L161.388 38.7517H156.666L151.821 24.2285H156.33L158.352 31.5894C158.771 33.2252 159.002 34.3642 159.042 35.0066C159.09 34.543 159.184 33.9636 159.327 33.2682C159.469 32.5728 159.594 32.0265 159.702 31.6291L161.764 24.2285Z" fill="white"/>
<path d="M177.577 34.3411C177.577 35.2417 177.343 36.043 176.876 36.745C176.409 37.4404 175.735 37.9834 174.855 38.3742C173.975 38.7583 172.942 38.9503 171.757 38.9503C170.769 38.9503 169.94 38.8841 169.269 38.7517C168.599 38.6126 167.902 38.3742 167.177 38.0364V34.5397C167.942 34.9238 168.738 35.2252 169.564 35.4437C170.39 35.6556 171.148 35.7616 171.839 35.7616C172.435 35.7616 172.871 35.6623 173.149 35.4636C173.426 35.2583 173.565 34.9967 173.565 34.6788C173.565 34.4801 173.508 34.3079 173.393 34.1623C173.284 34.0099 173.105 33.8576 172.854 33.7053C172.611 33.553 171.954 33.2417 170.884 32.7715C169.916 32.3411 169.188 31.9238 168.701 31.5199C168.22 31.1159 167.861 30.6523 167.624 30.1291C167.394 29.606 167.279 28.9868 167.279 28.2715C167.279 26.9338 167.776 25.8907 168.772 25.1424C169.767 24.394 171.135 24.0199 172.875 24.0199C174.412 24.0199 175.979 24.3675 177.577 25.0629L176.348 28.0927C174.96 27.4702 173.762 27.1589 172.753 27.1589C172.231 27.1589 171.852 27.2483 171.615 27.4272C171.378 27.606 171.26 27.8278 171.26 28.0927C171.26 28.3775 171.409 28.6325 171.707 28.8576C172.011 29.0828 172.831 29.4934 174.164 30.0894C175.444 30.6523 176.331 31.2583 176.825 31.9073C177.326 32.5497 177.577 33.3609 177.577 34.3411Z" fill="white"/>
<path d="M188.688 38.7517H179.872V24.2285H188.688V27.3775H183.884V29.6623H188.332V32.8113H183.884V35.553H188.688V38.7517Z" fill="white"/>
<path d="M190.556 37.1026C190.556 36.4934 190.739 36.0232 191.105 35.6921C191.477 35.3609 192.015 35.1954 192.719 35.1954C193.39 35.1954 193.904 35.3609 194.263 35.6921C194.622 36.0232 194.801 36.4934 194.801 37.1026C194.801 37.6987 194.615 38.1656 194.243 38.5033C193.877 38.8344 193.369 39 192.719 39C192.049 39 191.521 38.8344 191.135 38.5033C190.749 38.1722 190.556 37.7053 190.556 37.1026Z" fill="white"/>
<path d="M201.311 33.4669V38.7517H197.3V24.2285H202.165C206.2 24.2285 208.218 25.6589 208.218 28.5199C208.218 30.202 207.378 31.5033 205.699 32.4238L210.025 38.7517H205.475L202.327 33.4669H201.311ZM201.311 30.5166H202.063C203.465 30.5166 204.165 29.9106 204.165 28.6987C204.165 27.6987 203.478 27.1987 202.104 27.1987H201.311V30.5166Z" fill="white"/>
<path d="M224 24.2285V32.9702C224 34.8709 223.448 36.3444 222.345 37.3907C221.248 38.4305 219.663 38.9503 217.592 38.9503C215.567 38.9503 214.01 38.4437 212.92 37.4305C211.836 36.4172 211.295 34.9603 211.295 33.0596V24.2285H215.327V32.7517C215.327 33.7781 215.523 34.5232 215.916 34.9868C216.309 35.4503 216.887 35.6821 217.652 35.6821C218.472 35.6821 219.064 35.4536 219.43 34.9967C219.802 34.5331 219.988 33.7781 219.988 32.7318V24.2285H224Z" fill="white"/>
<path fill-rule="evenodd" clip-rule="evenodd" d="M37.2105 16.7244C35.5004 18.4345 35.4861 18.7585 35.4861 18.7585C35.4861 18.7585 35.5297 18.99 36.0458 19.5061C36.5618 20.0221 36.7934 20.0658 36.7934 20.0658C36.7934 20.0658 37.1346 20.0687 38.8446 18.3586C40.5547 16.6485 40.5519 16.3073 40.5519 16.3073C40.5519 16.3073 40.4738 16.0414 39.9921 15.5597C39.5105 15.0781 39.2445 15 39.2445 15C39.2445 15 38.9206 15.0143 37.2105 16.7244ZM15.0459 23.3417C15.0459 23.3417 15.0766 22.6466 18.7455 18.9778C22.4144 15.3089 23.1094 15.2782 23.1094 15.2782C23.1094 15.2782 23.68 15.4456 24.7134 16.479C25.7467 17.5123 25.9142 18.083 25.9142 18.083C25.9142 18.083 25.9204 18.8149 22.2515 22.4838C18.5826 26.1527 17.8507 26.1465 17.8507 26.1465C17.8507 26.1465 17.3539 26.0528 16.2467 24.9456C15.1395 23.8385 15.0459 23.3417 15.0459 23.3417ZM38.9498 22.685C38.9498 22.685 33.3187 28.2333 32.7387 28.7771C32.1587 29.3209 33.4543 30.8336 34.0568 30.3063C34.6594 29.779 40.4788 24.1087 40.4788 24.1087C41.0588 23.4759 43.4531 22.4635 45.0981 24.1087C46.5641 25.5749 46.3875 27.2183 46.299 28.0409C46.2634 28.3721 46.2421 28.5702 46.3481 28.5702C50.4477 24.4224 45.5685 20.5931 43.7381 19.1567L43.7381 19.1566C43.5441 19.0044 43.3843 18.879 43.2732 18.783C42.3452 19.7954 41.0412 19.2399 40.637 18.783L40.1098 18.0975C39.4771 18.6072 38.391 19.8376 39.108 20.6812C39.8251 21.5249 39.3013 22.3686 38.9498 22.685ZM24.5432 22.2882L47.598 45.343C47.598 45.343 47.9012 45.7845 46.8084 46.8773C45.7157 47.97 45.2742 47.6669 45.2742 47.6669L23.9554 26.3481C22.1911 24.5838 23.4734 21.2183 24.5432 22.2882ZM15.0434 45.365L27.8662 32.5423C28.936 31.4724 30.4046 35.0242 28.6403 36.7885L17.5536 47.8752C17.5536 47.8752 17.1066 48.1728 15.9262 46.9924C14.7459 45.8121 15.0434 45.365 15.0434 45.365Z" fill="white"/>
<path fill-rule="evenodd" clip-rule="evenodd" d="M4 4H58V20H62V4V0H58H4H0V4V58V62H4H58H62V58V43H58V58H4V4Z" fill="#FFCD21"/>
</svg>
