<svg width="47" height="71" viewBox="0 0 47 71" fill="none" xmlns="http://www.w3.org/2000/svg">
<path fill-rule="evenodd" clip-rule="evenodd" d="M40.3464 14.169L38.8382 5.59578H30.1531L23.4999 0L16.8466 5.59578H8.16148L6.65328 14.169L0 19.765L4.34262 27.3041L2.83443 35.8775L10.9959 38.855L15.3385 46.3942L23.5 43.4167L31.6615 46.3942L36.0041 38.855L44.1656 35.8775L42.6574 27.3041L47 19.765L40.3464 14.169ZM19.713 30.3063L14.2715 23.9429L17.4376 21.2228L20.3364 24.6125L29.8939 17.4277L32.396 20.7716L19.713 30.3063ZM13.4764 51.5217L8.14324 42.2625L6.8505 41.7909V70.9999H11.2625L21.4459 60.1925V48.6143L13.4764 51.5217ZM33.5231 51.5217L38.8563 42.2625L40.2115 41.7682V70.9999H35.8395L25.6161 60.1832V48.637L33.5231 51.5217Z" fill="#FFCD21"/>
</svg>
