<svg width="29" height="21" viewBox="0 0 29 21" fill="none" xmlns="http://www.w3.org/2000/svg">
<path fill-rule="evenodd" clip-rule="evenodd" d="M27 0H1.79998C0.90178 0 0.18898 0.71018 0.0539795 1.62463L14.4 11.6492L28.746 1.62463C28.611 0.71018 27.8982 0 27 0ZM0 17.1662V3.87129L9.7092 10.6562L0 17.1662ZM28.8 17.1662L19.0908 10.6562L28.8 3.87129V17.1662ZM14.895 13.589L17.442 11.8097L28.7424 19.3888C28.6038 20.2956 27.8946 21.0001 27 21.0001H1.8C0.905405 21.0001 0.196205 20.2956 0.057605 19.3888L11.358 11.8078L13.905 13.589C14.0562 13.694 14.2272 13.7455 14.4 13.7455C14.5728 13.7455 14.7438 13.694 14.895 13.589Z" fill="#C4C4C4"/>
</svg>
