<svg width="54" height="54" viewBox="0 0 54 54" fill="none" xmlns="http://www.w3.org/2000/svg">
<path fill-rule="evenodd" clip-rule="evenodd" d="M0 27C0 12.0906 12.0906 0 27 0C41.9094 0 54 12.0906 54 27C54 41.9094 41.9094 54 27 54C12.0906 54 0 41.9094 0 27ZM43.1763 35.1438C43.8709 32.5033 43.8709 27.0276 43.8709 27.0276C43.8709 27.0276 43.8989 21.5247 43.1763 18.8843C42.7869 17.439 41.6474 16.299 40.2021 15.9101C37.5617 15.1875 27 15.1875 27 15.1875C27 15.1875 16.4383 15.1875 13.7979 15.8825C12.3802 16.2714 11.2126 17.439 10.8237 18.8843C10.1287 21.5247 10.1287 27 10.1287 27C10.1287 27 10.1287 32.5033 10.8237 35.1157C11.2131 36.561 12.3526 37.701 13.7979 38.0899C16.4659 38.8125 27 38.8125 27 38.8125C27 38.8125 37.5617 38.8125 40.2021 38.1175C41.6474 37.7286 42.7869 36.589 43.1763 35.1438ZM32.4197 26.9997L23.637 32.0581V21.9413L32.4197 26.9997Z" fill="#FFCD21"/>
</svg>
